# xmcd CD database file generated by OrangeCD 6.5
#
# Track frame offsets:
#	180
#	15035
#	25837
#	43892
#	56957
#	71320
#	80295
#	91185
#	107572
#	123982
#	135647
#	146567
#
# Disc length: 2127 seconds
#
# Revision: 1
# Processed by: cddbd v1.5.2PL0 Copyright (c) Steve Scherf et al.
# Submitted via: OrangeCD 6.5
#
DISCID=94084d0c
DTITLE=Everly Brothers - Pass The Chicken and Listen
DYEAR=1972
DGENRE=Country
TTITLE0=Lay It Down
TTITLE1=Husbands and Wives
TTITLE2=Woman Don't you try to Tie Me Down
TTITLE3=Sweet Memories
TTITLE4=Ladies Love Outlaws
TTITLE5=Not Fade Away
TTITLE6=Watchin It Go
TTITLE7=Paradise
TTITLE8=Somebody Nobody Knows
TTITLE9=Good Hearted Woman
TTITLE10=A Nickel for the Fiddler
TTITLE11=Rocky Top
EXTD=
EXTT0=PERFORMER: Everly Brothers
EXTT1=PERFORMER: Everly Brothers
EXTT2=PERFORMER: Everly Brothers
EXTT3=PERFORMER: Everly Brothers
EXTT4=PERFORMER: Everly Brothers
EXTT5=PERFORMER: Everly Brothers
EXTT6=PERFORMER: Everly Brothers
EXTT7=PERFORMER: Everly Brothers
EXTT8=PERFORMER: Everly Brothers
EXTT9=PERFORMER: Everly Brothers
EXTT10=PERFORMER: Everly Brothers
EXTT11=PERFORMER: Everly Brothers
PLAYORDER=
